<svg width="143" height="44" viewBox="0 0 143 44" fill="none" xmlns="http://www.w3.org/2000/svg">
<g clip-path="url(#clip0_1870_3132)">
<path d="M15.1147 0V8.24059H13.7422V3.18079C12.8115 3.51654 11.9162 3.93475 11.0621 4.44132C6.75038 7.02129 3.91712 11.4921 3.42822 16.4871H34.9357C34.4409 11.3684 31.4839 6.81513 27.0132 4.26461C26.2828 3.85818 25.517 3.51065 24.7336 3.22202V8.24059H23.3612V0H19.88V4.12324H18.5075V0H15.1206H15.1147Z" fill="#FF5100"/>
<path d="M37.0974 17.8595H3.3575H1.37834C0.612596 17.8595 0 18.4721 0 19.232V20.6044C0 21.3702 0.612596 21.9828 1.37245 21.9828H37.0915C37.8514 21.9828 38.464 21.3702 38.464 20.6103V19.2379C38.464 18.478 37.8514 17.8654 37.0915 17.8654L37.0974 17.8595Z" fill="#FF5100"/>
<path d="M0 24.7277V28.2265H3.91708C4.30584 29.9524 4.98323 31.6017 5.9198 33.1037L3.16312 35.8545L8.11101 40.8024L10.8677 38.0399C12.3638 38.9823 14.0131 39.6597 15.739 40.0543V43.9655H22.7309V40.0485C24.4567 39.6597 26.106 38.9882 27.6081 38.0516L30.3589 40.8024L35.3067 35.8545L32.5442 33.0978C33.4866 31.6017 34.164 29.9524 34.5587 28.2265H38.464V24.7277H28.845C28.845 30.0408 24.5392 34.3466 19.2261 34.3466C13.913 34.3466 9.60716 30.0408 9.60716 24.7277H0Z" fill="#1C3564"/>
<path d="M45.939 23.6733V8.02264H49.8148V20.3158H54.6272L55.1515 23.6733H45.939Z" fill="#1B3764"/>
<path d="M70.8024 23.6733L70.1191 13.2592L67.1445 23.6969H63.516L60.5473 13.2592L59.864 23.6733H56.4829L57.6197 8.02264H62.6324L65.6719 18.7961L68.7349 8.02264H73.6121L74.7489 23.6733H70.8024Z" fill="#1B3764"/>
<path d="M86.7236 23.8559C84.6148 23.8559 82.8418 23.4024 81.2573 22.6778L81.8228 19.3675C83.4309 20.2275 85.2274 20.8165 86.7884 20.8165C87.9016 20.8165 88.6733 20.3394 88.6733 19.4087C88.6733 18.478 88.2197 18.1128 86.0167 17.2764C82.889 16.0748 81.5283 15.0557 81.5283 12.464C81.5283 9.44812 83.8844 7.83417 86.8826 7.83417C88.9266 7.83417 90.2401 8.21704 91.6008 8.87676L91.0117 12.1459C89.604 11.3271 88.1314 10.8736 86.9297 10.8736C85.7281 10.8736 85.1803 11.3743 85.1803 12.0988C85.1803 12.894 85.6103 13.2768 87.56 14.0249C90.9646 15.2737 92.3253 16.4517 92.3253 18.9493C92.3253 22.3539 89.8278 23.85 86.7236 23.85V23.8559Z" fill="#1B3764"/>
<path d="M100.378 23.6733L100.154 22.2891C99.2467 23.2433 98.1806 23.8971 96.6609 23.8971C94.8938 23.8971 93.645 22.831 93.645 20.8106C93.645 18.2012 95.6418 16.976 99.9948 16.5931V16.3869C99.9948 15.4091 99.4529 14.9791 98.3161 14.9791C97.0673 14.9791 95.9128 15.2972 94.7347 15.8215L94.3283 13.2356C95.6006 12.7114 97.0261 12.3756 98.8403 12.3756C101.903 12.3756 103.423 13.3946 103.423 16.2338V23.6733H100.384H100.378ZM99.9889 18.2542C97.6505 18.6194 97.0143 19.391 97.0143 20.3629C97.0143 21.0639 97.4443 21.4526 98.0805 21.4526C98.7166 21.4526 99.3763 21.1581 99.9889 20.6162V18.2542Z" fill="#1B3764"/>
<path d="M111.128 10.155C110.197 10.155 109.767 10.6085 109.767 11.5156V12.5582H111.787L112.194 15.3502H109.767V23.6733H106.339V15.3502H104.795V12.5582H106.339V11.174C106.339 8.49977 107.994 7.49841 110.556 7.49841C111.098 7.49841 111.552 7.5691 111.94 7.61033L112.347 10.2433C112.005 10.1962 111.599 10.155 111.122 10.155H111.128Z" fill="#1B3764"/>
<path d="M122.855 18.9787H116.187C116.37 20.7281 117.413 21.4055 118.909 21.4055C120.134 21.4055 121.336 20.952 122.561 20.251L122.902 22.6543C121.701 23.4259 120.228 23.903 118.479 23.903C115.145 23.903 112.759 22.1359 112.759 18.1658C112.759 14.5374 114.98 12.3344 118.002 12.3344C121.406 12.3344 122.926 14.8731 122.926 18.0951C122.926 18.4368 122.902 18.7961 122.855 18.9787ZM117.907 14.555C116.953 14.555 116.276 15.3915 116.158 17.0938H119.651C119.539 15.415 118.95 14.555 117.907 14.555Z" fill="#1B3764"/>
<path d="M129.411 23.8323C127.032 23.8323 125.376 22.9723 125.376 20.1332V15.3444H123.904V12.5523H125.376V9.24195L128.781 8.71771V12.5523H130.89L131.32 15.3444H128.781V19.5854C128.781 20.4925 129.211 20.8989 130.142 20.8989C130.436 20.8989 130.707 20.8518 130.96 20.787L131.39 23.6026C130.849 23.7617 130.324 23.8264 129.417 23.8264L129.411 23.8323Z" fill="#1B3764"/>
<path d="M139.048 23.903C138.052 26.807 136.692 27.8024 134.259 27.8024C133.576 27.8024 133.281 27.7318 132.963 27.667L132.533 24.9221C132.898 25.034 133.234 25.1047 133.894 25.1047C134.665 25.1047 135.343 24.8101 135.708 24.0385L135.844 23.6969L131.803 12.8292L135.478 12.3992L137.634 19.4087L139.678 12.5582H142.989L139.042 23.903H139.048Z" fill="#1B3764"/>
<path d="M46.5103 35.8074V29.9171H47.9711V35.8074H46.5103Z" fill="#FF5100"/>
<path d="M51.5997 35.8074L51.5172 35.2596C51.2345 35.5777 50.8516 35.8899 50.3156 35.8899C49.4615 35.8899 48.8018 35.2419 48.8018 33.8342C48.8018 32.2379 49.65 31.5958 50.5689 31.5958C50.9517 31.5958 51.2168 31.6488 51.4583 31.7313V29.8464L52.7483 29.6402V35.8074H51.6056H51.5997ZM51.4524 32.7209C51.2639 32.6384 51.1167 32.6031 50.8457 32.6031C50.4216 32.6031 50.0917 32.9388 50.0917 33.7399C50.0917 34.4585 50.3627 34.7472 50.7338 34.7472C51.0047 34.7472 51.2286 34.5704 51.4524 34.3231V32.7268V32.7209Z" fill="#FF5100"/>
<path d="M57.2246 34.0344H54.7153C54.786 34.6941 55.1747 34.9474 55.7402 34.9474C56.1996 34.9474 56.6532 34.7766 57.1127 34.5115L57.2422 35.4186C56.7887 35.7073 56.235 35.8899 55.5753 35.8899C54.3206 35.8899 53.4253 35.2243 53.4253 33.7281C53.4253 32.3615 54.2617 31.531 55.3986 31.531C56.6768 31.531 57.254 32.4852 57.254 33.6987C57.254 33.8282 57.2481 33.9637 57.2305 34.0344H57.2246ZM55.3632 32.3733C55.0039 32.3733 54.7506 32.6914 54.7035 33.3276H56.017C55.9758 32.6973 55.752 32.3733 55.3573 32.3733H55.3632Z" fill="#FF5100"/>
<path d="M60.3643 35.8074V33.1862C60.3643 32.8858 60.2465 32.6797 59.9402 32.6797C59.6928 32.6797 59.4631 32.8269 59.2333 33.0566V35.8074H57.9434V31.6253H59.0802L59.1744 32.1966C59.5514 31.8314 59.952 31.5369 60.4821 31.5369C61.2596 31.5369 61.6719 32.0258 61.6719 32.8328V35.8015H60.3761L60.3643 35.8074Z" fill="#FF5100"/>
<path d="M64.2756 35.8663C63.3802 35.8663 62.7558 35.5423 62.7558 34.4762V32.6737H62.2021V31.6253H62.7558V30.3765L64.034 30.1821V31.6253H64.8292L64.9942 32.6737H64.0399V34.27C64.0399 34.6117 64.2049 34.7648 64.5524 34.7648C64.6643 34.7648 64.7645 34.7471 64.8587 34.7236L65.0236 35.7838C64.8175 35.8428 64.6231 35.8722 64.2814 35.8722L64.2756 35.8663Z" fill="#FF5100"/>
<path d="M66.3017 31.0775C65.8894 31.0775 65.5654 30.8065 65.5654 30.3883C65.5654 29.9701 65.8894 29.6873 66.3017 29.6873C66.714 29.6873 67.038 29.9583 67.038 30.3883C67.038 30.8183 66.7199 31.0775 66.3017 31.0775ZM65.6538 35.8074V31.6253H66.9497V35.8074H65.6538Z" fill="#FF5100"/>
<path d="M69.9124 30.7182C69.5649 30.7182 69.4 30.889 69.4 31.2306V31.6253H70.1598L70.313 32.6738H69.4V35.8074H68.11V32.6738H67.5269V31.6253H68.11V31.1069C68.11 30.0997 68.7344 29.7227 69.7004 29.7227C69.9066 29.7227 70.0774 29.7462 70.2187 29.7639L70.3719 30.7535C70.2423 30.7358 70.0892 30.7182 69.9124 30.7182Z" fill="#FF5100"/>
<path d="M73.1345 35.8899C72.7575 36.9855 72.245 37.3566 71.332 37.3566C71.0728 37.3566 70.9668 37.333 70.8431 37.3036L70.6782 36.2728C70.8137 36.314 70.9432 36.3434 71.1906 36.3434C71.4793 36.3434 71.7384 36.2315 71.8739 35.9429L71.9269 35.8133L70.4072 31.7254L71.7915 31.5605L72.6043 34.1994L73.3701 31.6194H74.6188L73.1345 35.8899Z" fill="#FF5100"/>
<path d="M76.8867 34.0639V32.5854H78.271V34.0639H76.8867Z" fill="#FF5100"/>
<path d="M84.8742 35.8663L84.4324 34.5881H82.4061L81.9938 35.8074H80.5684L82.683 29.8876H84.2911L86.3409 35.6248L84.8742 35.8663ZM83.4134 31.3896L82.7478 33.4395H84.079L83.4134 31.3896Z" fill="#FF5100"/>
<path d="M88.4495 35.8722C87.7839 35.8722 87.1595 35.6837 86.7236 35.454L86.8768 34.4703C87.3716 34.7766 87.9783 34.9651 88.4554 34.9651C88.8147 34.9651 88.9855 34.8473 88.9855 34.647C88.9855 34.435 88.8677 34.3407 88.2787 34.1935C87.2302 33.9225 86.7825 33.6398 86.7825 32.8505C86.7825 32.0612 87.3657 31.5546 88.3906 31.5546C88.9561 31.5546 89.498 31.6665 89.9339 31.8609L89.7689 32.8446C89.3154 32.5972 88.797 32.4499 88.3965 32.4499C88.0902 32.4499 87.9547 32.5618 87.9547 32.7209C87.9547 32.8917 88.0725 32.986 88.6616 33.145C89.7689 33.4454 90.1636 33.7281 90.1636 34.5057C90.1636 35.3833 89.5569 35.8604 88.4495 35.8604V35.8722Z" fill="#FF5100"/>
<path d="M92.3782 35.8722C91.7126 35.8722 91.0882 35.6837 90.6523 35.454L90.8055 34.4703C91.3003 34.7766 91.907 34.9651 92.3841 34.9651C92.7434 34.9651 92.9142 34.8473 92.9142 34.647C92.9142 34.435 92.7964 34.3407 92.2074 34.1935C91.1589 33.9225 90.7113 33.6398 90.7113 32.8505C90.7113 32.0612 91.2944 31.5546 92.3193 31.5546C92.8848 31.5546 93.4267 31.6665 93.8626 31.8609L93.6977 32.8446C93.2441 32.5972 92.7258 32.4499 92.3252 32.4499C92.0189 32.4499 91.8834 32.5618 91.8834 32.7209C91.8834 32.8917 92.0012 32.986 92.5903 33.145C93.6977 33.4454 94.0923 33.7281 94.0923 34.5057C94.0923 35.3833 93.4856 35.8604 92.3782 35.8604V35.8722Z" fill="#FF5100"/>
<path d="M98.3808 34.0344H95.8715C95.9422 34.6941 96.331 34.9474 96.8964 34.9474C97.3559 34.9474 97.8095 34.7766 98.2689 34.5115L98.3985 35.4186C97.9449 35.7073 97.3912 35.8899 96.7315 35.8899C95.4769 35.8899 94.5815 35.2243 94.5815 33.7281C94.5815 32.3615 95.418 31.531 96.5548 31.531C97.833 31.531 98.4103 32.4852 98.4103 33.6987C98.4103 33.8282 98.4044 33.9637 98.3867 34.0344H98.3808ZM96.5195 32.3733C96.1602 32.3733 95.9069 32.6914 95.8597 33.3276H97.1733C97.1321 32.6973 96.9082 32.3733 96.5136 32.3733H96.5195Z" fill="#FF5100"/>
<path d="M100.648 35.8722C99.9826 35.8722 99.3582 35.6837 98.9224 35.454L99.0755 34.4703C99.5703 34.7766 100.177 34.9651 100.654 34.9651C101.013 34.9651 101.184 34.8473 101.184 34.647C101.184 34.435 101.066 34.3407 100.477 34.1935C99.4289 33.9225 98.9813 33.6398 98.9813 32.8505C98.9813 32.0612 99.5644 31.5546 100.589 31.5546C101.155 31.5546 101.697 31.6665 102.133 31.8609L101.968 32.8446C101.514 32.5972 100.996 32.4499 100.595 32.4499C100.289 32.4499 100.153 32.5618 100.153 32.7209C100.153 32.8917 100.271 32.986 100.86 33.145C101.968 33.4454 102.362 33.7281 102.362 34.5057C102.362 35.3833 101.756 35.8604 100.648 35.8604V35.8722Z" fill="#FF5100"/>
<path d="M104.577 35.8722C103.912 35.8722 103.287 35.6837 102.852 35.454L103.005 34.4703C103.499 34.7766 104.106 34.9651 104.583 34.9651C104.943 34.9651 105.113 34.8473 105.113 34.647C105.113 34.435 104.996 34.3407 104.407 34.1935C103.358 33.9225 102.91 33.6398 102.91 32.8505C102.91 32.0612 103.494 31.5546 104.519 31.5546C105.084 31.5546 105.626 31.6665 106.062 31.8609L105.897 32.8446C105.443 32.5972 104.925 32.4499 104.524 32.4499C104.218 32.4499 104.083 32.5618 104.083 32.7209C104.083 32.8917 104.2 32.986 104.789 33.145C105.897 33.4454 106.292 33.7281 106.292 34.5057C106.292 35.3833 105.685 35.8604 104.577 35.8604V35.8722Z" fill="#FF5100"/>
<path d="M108.742 34.0639V32.5854H110.126V34.0639H108.742Z" fill="#FF5100"/>
<path d="M115.498 35.9075C113.713 35.9075 112.635 34.7118 112.635 32.8681C112.635 31.0244 113.778 29.811 115.451 29.811C116.116 29.811 116.652 29.9583 117.082 30.1939L116.876 31.5075C116.517 31.2365 116.075 31.0303 115.563 31.0303C114.673 31.0303 114.096 31.7077 114.096 32.8563C114.096 34.005 114.756 34.6824 115.639 34.6824C116.116 34.6824 116.535 34.5174 116.982 34.27L117.171 35.4658C116.694 35.7308 116.146 35.9017 115.498 35.9017V35.9075Z" fill="#FF5100"/>
<path d="M119.562 35.8899C118.408 35.8899 117.565 35.0594 117.565 33.7222C117.565 32.3851 118.42 31.5369 119.574 31.5369C120.729 31.5369 121.589 32.3734 121.589 33.7164C121.589 35.0594 120.729 35.8958 119.562 35.8958V35.8899ZM119.574 32.5972C119.079 32.5972 118.814 33.0331 118.814 33.7164C118.814 34.3996 119.085 34.8532 119.574 34.8532C120.063 34.8532 120.34 34.3996 120.34 33.7281C120.34 33.0566 120.069 32.6031 119.574 32.6031V32.5972Z" fill="#FF5100"/>
<path d="M124.693 35.8074V33.1862C124.693 32.8858 124.575 32.6797 124.269 32.6797C124.021 32.6797 123.792 32.8269 123.562 33.0566V35.8074H122.272V31.6253H123.409L123.503 32.1966C123.88 31.8314 124.281 31.5369 124.811 31.5369C125.588 31.5369 126.001 32.0258 126.001 32.8328V35.8015H124.705L124.693 35.8074Z" fill="#FF5100"/>
<path d="M128.604 35.8663C127.709 35.8663 127.084 35.5423 127.084 34.4762V32.6737H126.531V31.6253H127.084V30.3765L128.363 30.1821V31.6253H129.158L129.323 32.6737H128.369V34.27C128.369 34.6117 128.533 34.7648 128.881 34.7648C128.993 34.7648 129.093 34.7471 129.187 34.7236L129.352 35.7838C129.146 35.8428 128.952 35.8722 128.61 35.8722L128.604 35.8663Z" fill="#FF5100"/>
<path d="M131.243 33.4807V35.8015H129.953V31.6194H131.078L131.214 32.4499C131.467 31.9728 131.82 31.5782 132.433 31.5369L132.645 32.8505C132.021 32.8917 131.549 33.1391 131.237 33.4807H131.243Z" fill="#FF5100"/>
<path d="M134.895 35.8899C133.74 35.8899 132.898 35.0594 132.898 33.7222C132.898 32.3851 133.752 31.5369 134.907 31.5369C136.061 31.5369 136.921 32.3734 136.921 33.7164C136.921 35.0594 136.061 35.8958 134.895 35.8958V35.8899ZM134.907 32.5972C134.412 32.5972 134.147 33.0331 134.147 33.7164C134.147 34.3996 134.418 34.8532 134.907 34.8532C135.395 34.8532 135.672 34.3996 135.672 33.7281C135.672 33.0566 135.401 32.6031 134.907 32.6031V32.5972Z" fill="#FF5100"/>
<path d="M137.628 35.8074V29.8464L138.924 29.6402V35.8074H137.628Z" fill="#FF5100"/>
</g>
<defs>
<clipPath id="clip0_1870_3132">
<rect width="143" height="43.9656" fill="white"/>
</clipPath>
</defs>
</svg>
